
      <svg data-logo="logo" xmlns="http://www.w3.org/2000/svg" viewBox="0 0 41 41">
        <g id="logogram" transform="translate(0, 0) rotate(0)"><path d="M20.5817 0.900024C9.53596 0.900024 0.581665 9.85432 0.581665 20.9C11.6274 20.9 20.5817 11.9457 20.5817 0.900024Z" fill="#FB3909"/><path d="M20.5817 40.9C31.6274 40.9 40.5817 31.9457 40.5817 20.9C29.536 20.9 20.5817 29.8543 20.5817 40.9Z" fill="#FB3909"/><path d="M20.5817 0.900024C31.6274 0.900024 40.5817 9.85432 40.5817 20.9C29.536 20.9 20.5817 11.9457 20.5817 0.900024Z" fill="#FB3909"/><path d="M20.5817 40.9C9.53596 40.9 0.581664 31.9457 0.581665 20.9C11.6274 20.9 20.5817 29.8543 20.5817 40.9Z" fill="#FB3909"/></g>
        <g id="logotype" transform="translate(41, 20.5)"></g>
        
      </svg>
    