
      <svg data-logo="logo" xmlns="http://www.w3.org/2000/svg" viewBox="0 0 417 43">
        <g id="logogram" transform="translate(0, 1) rotate(0)"><path d="M20.5817 0.900024C9.53596 0.900024 0.581665 9.85432 0.581665 20.9C11.6274 20.9 20.5817 11.9457 20.5817 0.900024Z" fill="#FB3909"/><path d="M20.5817 40.9C31.6274 40.9 40.5817 31.9457 40.5817 20.9C29.536 20.9 20.5817 29.8543 20.5817 40.9Z" fill="#FB3909"/><path d="M20.5817 0.900024C31.6274 0.900024 40.5817 9.85432 40.5817 20.9C29.536 20.9 20.5817 11.9457 20.5817 0.900024Z" fill="#FB3909"/><path d="M20.5817 40.9C9.53596 40.9 0.581664 31.9457 0.581665 20.9C11.6274 20.9 20.5817 29.8543 20.5817 40.9Z" fill="#FB3909"/></g>
        <g id="logotype" transform="translate(47, 5)"><path fill="#fffafa" d="M32 33L19 33L19 7.00L12.50 7.00L12.50 0.50L38.50 0.50L38.50 7.00L32 7.00L32 33ZM59.30 33L46.30 33L46.30 0.50L59.30 0.50L59.30 33ZM93.10 33L73.60 33L73.60 26.50L67.10 26.50L67.10 7.00L73.60 7.00L73.60 0.50L93.10 0.50L93.10 7.00L99.60 7.00L99.60 13.50L86.60 13.50L86.60 7.00L80.10 7.00L80.10 26.50L86.60 26.50L86.60 20L99.60 20L99.60 26.50L93.10 26.50L93.10 33ZM120.40 33L107.40 33L107.40 0.50L120.40 0.50L120.40 7.00L126.90 7.00L126.90 0.50L139.90 0.50L139.90 7.00L133.40 7.00L133.40 13.50L126.90 13.50L126.90 20L133.40 20L133.40 26.50L139.90 26.50L139.90 33L126.90 33L126.90 26.50L120.40 26.50L120.40 33ZM173.70 20L147.70 20L147.70 13.50L173.70 13.50L173.70 20ZM201.00 33L188.00 33L188.00 7.00L181.50 7.00L181.50 0.50L207.50 0.50L207.50 7.00L201.00 7.00L201.00 33ZM228.30 33L215.30 33L215.30 0.50L241.30 0.50L241.30 7.00L247.80 7.00L247.80 13.50L241.30 13.50L241.30 26.50L247.80 26.50L247.80 33L234.80 33L234.80 26.50L228.30 26.50L228.30 33ZM228.30 7.00L228.30 13.50L234.80 13.50L234.80 7.00L228.30 7.00ZM268.60 33L255.60 33L255.60 7.00L262.10 7.00L262.10 0.50L281.60 0.50L281.60 7.00L288.10 7.00L288.10 33L275.10 33L275.10 20L268.60 20L268.60 33ZM268.60 7.26L268.60 13.50L275.10 13.50L275.10 7.26L268.60 7.26ZM321.90 33L302.40 33L302.40 26.50L295.90 26.50L295.90 7.00L302.40 7.00L302.40 0.50L321.90 0.50L321.90 7.00L328.40 7.00L328.40 13.50L315.40 13.50L315.40 7.00L308.90 7.00L308.90 26.50L315.40 26.50L315.40 20L328.40 20L328.40 26.50L321.90 26.50L321.90 33ZM349.20 33L336.20 33L336.20 0.50L349.20 0.50L349.20 7.00L355.70 7.00L355.70 0.50L368.70 0.50L368.70 7.00L362.20 7.00L362.20 13.50L355.70 13.50L355.70 20L362.20 20L362.20 26.50L368.70 26.50L368.70 33L355.70 33L355.70 26.50L349.20 26.50L349.20 33Z"/></g>
        
      </svg>
    